<svg width="213" height="227" viewBox="0 0 213 227" fill="none" xmlns="http://www.w3.org/2000/svg">
<g clip-path="url(#clip0_13_2)">
<path d="M153.227 137V102.091H161.091V108.023H161.5C162.227 106.023 163.432 104.462 165.114 103.341C166.795 102.205 168.803 101.636 171.136 101.636C173.5 101.636 175.492 102.212 177.114 103.364C178.75 104.5 179.902 106.053 180.568 108.023H180.932C181.705 106.083 183.008 104.538 184.841 103.386C186.689 102.22 188.879 101.636 191.409 101.636C194.621 101.636 197.242 102.652 199.273 104.682C201.303 106.712 202.318 109.674 202.318 113.568V137H194.068V114.841C194.068 112.674 193.492 111.091 192.341 110.091C191.189 109.076 189.78 108.568 188.114 108.568C186.129 108.568 184.576 109.189 183.455 110.432C182.349 111.659 181.795 113.258 181.795 115.227V137H173.727V114.5C173.727 112.697 173.182 111.258 172.091 110.182C171.015 109.106 169.606 108.568 167.864 108.568C166.682 108.568 165.606 108.871 164.636 109.477C163.667 110.068 162.894 110.909 162.318 112C161.742 113.076 161.455 114.333 161.455 115.773V137H153.227Z" fill="white" class="svg-elem-1"></path>
<path d="M134.477 122.318V102.091H142.705V137H134.727V130.795H134.364C133.576 132.75 132.28 134.348 130.477 135.591C128.689 136.833 126.485 137.455 123.864 137.455C121.576 137.455 119.553 136.947 117.795 135.932C116.053 134.902 114.689 133.409 113.705 131.455C112.72 129.485 112.227 127.106 112.227 124.318V102.091H120.455V123.045C120.455 125.258 121.061 127.015 122.273 128.318C123.485 129.621 125.076 130.273 127.045 130.273C128.258 130.273 129.432 129.977 130.568 129.386C131.705 128.795 132.636 127.917 133.364 126.75C134.106 125.568 134.477 124.091 134.477 122.318Z" fill="white" class="svg-elem-2"></path>
<path d="M106.455 90.4545V137H98.2273V90.4545H106.455Z" fill="white" class="svg-elem-3"></path>
<path d="M89.4546 90.4545V137H81.2273V90.4545H89.4546Z" fill="white" class="svg-elem-4"></path>
<path d="M54.2728 137.705C52.0606 137.705 50.0682 137.311 48.2955 136.523C46.5379 135.72 45.144 134.538 44.1137 132.977C43.0985 131.417 42.5909 129.492 42.5909 127.205C42.5909 125.235 42.9546 123.606 43.6818 122.318C44.4091 121.03 45.4015 120 46.6591 119.227C47.9167 118.455 49.3334 117.871 50.9091 117.477C52.5 117.068 54.144 116.773 55.8409 116.591C57.8864 116.379 59.5455 116.189 60.8182 116.023C62.0909 115.841 63.0152 115.568 63.5909 115.205C64.1818 114.826 64.4773 114.242 64.4773 113.455V113.318C64.4773 111.606 63.9697 110.28 62.9546 109.341C61.9394 108.402 60.4773 107.932 58.5682 107.932C56.5531 107.932 54.9546 108.371 53.7728 109.25C52.6061 110.129 51.8182 111.167 51.4091 112.364L43.7273 111.273C44.3334 109.152 45.3334 107.379 46.7273 105.955C48.1212 104.515 49.8258 103.439 51.8409 102.727C53.8561 102 56.0834 101.636 58.5228 101.636C60.2046 101.636 61.8788 101.833 63.5455 102.227C65.2121 102.621 66.7349 103.273 68.1137 104.182C69.4924 105.076 70.5985 106.295 71.4318 107.841C72.2803 109.386 72.7046 111.318 72.7046 113.636V137H64.7955V132.205H64.5228C64.0228 133.174 63.3182 134.083 62.4091 134.932C61.5152 135.765 60.3864 136.439 59.0228 136.955C57.6743 137.455 56.0909 137.705 54.2728 137.705ZM56.4091 131.659C58.0606 131.659 59.4924 131.333 60.7046 130.682C61.9167 130.015 62.8485 129.136 63.5 128.045C64.1667 126.955 64.5 125.765 64.5 124.477V120.364C64.2424 120.576 63.8031 120.773 63.1818 120.955C62.5758 121.136 61.894 121.295 61.1364 121.432C60.3788 121.568 59.6288 121.689 58.8864 121.795C58.144 121.902 57.5 121.992 56.9546 122.068C55.7273 122.235 54.6288 122.508 53.6591 122.886C52.6894 123.265 51.9243 123.795 51.3637 124.477C50.8031 125.144 50.5228 126.008 50.5228 127.068C50.5228 128.583 51.0758 129.727 52.1818 130.5C53.2879 131.273 54.697 131.659 56.4091 131.659Z" fill="white" class="svg-elem-5"></path>
<path d="M22.4546 137.682C18.9697 137.682 15.9773 136.917 13.4773 135.386C10.9924 133.856 9.07578 131.742 7.7273 129.045C6.39396 126.333 5.72729 123.212 5.72729 119.682C5.72729 116.136 6.40911 113.008 7.77275 110.295C9.13639 107.568 11.0606 105.447 13.5455 103.932C16.0455 102.402 19 101.636 22.4091 101.636C25.2424 101.636 27.75 102.159 29.9318 103.205C32.1288 104.235 33.8788 105.697 35.1818 107.591C36.4849 109.47 37.2273 111.667 37.4091 114.182H29.5455C29.2273 112.5 28.4697 111.098 27.2728 109.977C26.0909 108.841 24.5076 108.273 22.5228 108.273C20.8409 108.273 19.3637 108.727 18.0909 109.636C16.8182 110.53 15.8258 111.818 15.1137 113.5C14.4167 115.182 14.0682 117.197 14.0682 119.545C14.0682 121.924 14.4167 123.97 15.1137 125.682C15.8106 127.379 16.7879 128.689 18.0455 129.614C19.3182 130.523 20.8106 130.977 22.5228 130.977C23.7349 130.977 24.8182 130.75 25.7728 130.295C26.7424 129.826 27.5531 129.152 28.2046 128.273C28.8561 127.394 29.3031 126.326 29.5455 125.068H37.4091C37.2121 127.538 36.4849 129.727 35.2273 131.636C33.9697 133.53 32.2576 135.015 30.0909 136.091C27.9243 137.152 25.3788 137.682 22.4546 137.682Z" fill="white" class="svg-elem-6"></path>
<path d="M153.227 137V102.091H161.091V108.023H161.5C162.227 106.023 163.432 104.462 165.114 103.341C166.795 102.205 168.803 101.636 171.136 101.636C173.5 101.636 175.492 102.212 177.114 103.364C178.75 104.5 179.902 106.053 180.568 108.023H180.932C181.705 106.083 183.008 104.538 184.841 103.386C186.689 102.22 188.879 101.636 191.409 101.636C194.621 101.636 197.242 102.652 199.273 104.682C201.303 106.712 202.318 109.674 202.318 113.568V137H194.068V114.841C194.068 112.674 193.492 111.091 192.341 110.091C191.189 109.076 189.78 108.568 188.114 108.568C186.129 108.568 184.576 109.189 183.455 110.432C182.349 111.659 181.795 113.258 181.795 115.227V137H173.727V114.5C173.727 112.697 173.182 111.258 172.091 110.182C171.015 109.106 169.606 108.568 167.864 108.568C166.682 108.568 165.606 108.871 164.636 109.477C163.667 110.068 162.894 110.909 162.318 112C161.742 113.076 161.455 114.333 161.455 115.773V137H153.227Z" stroke="white" stroke-width="2" class="svg-elem-7"></path>
<path d="M134.477 122.318V102.091H142.705V137H134.727V130.795H134.364C133.576 132.75 132.28 134.348 130.477 135.591C128.689 136.833 126.485 137.455 123.864 137.455C121.576 137.455 119.553 136.947 117.795 135.932C116.053 134.902 114.689 133.409 113.705 131.455C112.72 129.485 112.227 127.106 112.227 124.318V102.091H120.455V123.045C120.455 125.258 121.061 127.015 122.273 128.318C123.485 129.621 125.076 130.273 127.045 130.273C128.258 130.273 129.432 129.977 130.568 129.386C131.705 128.795 132.636 127.917 133.364 126.75C134.106 125.568 134.477 124.091 134.477 122.318Z" stroke="white" stroke-width="2" class="svg-elem-8"></path>
<path d="M106.455 90.4545V137H98.2273V90.4545H106.455Z" stroke="white" stroke-width="2" class="svg-elem-9"></path>
<path d="M89.4546 90.4545V137H81.2273V90.4545H89.4546Z" stroke="white" stroke-width="2" class="svg-elem-10"></path>
<path d="M54.2728 137.705C52.0606 137.705 50.0682 137.311 48.2955 136.523C46.5379 135.72 45.144 134.538 44.1137 132.977C43.0985 131.417 42.5909 129.492 42.5909 127.205C42.5909 125.235 42.9546 123.606 43.6818 122.318C44.4091 121.03 45.4015 120 46.6591 119.227C47.9167 118.455 49.3334 117.871 50.9091 117.477C52.5 117.068 54.144 116.773 55.8409 116.591C57.8864 116.379 59.5455 116.189 60.8182 116.023C62.0909 115.841 63.0152 115.568 63.5909 115.205C64.1818 114.826 64.4773 114.242 64.4773 113.455V113.318C64.4773 111.606 63.9697 110.28 62.9546 109.341C61.9394 108.402 60.4773 107.932 58.5682 107.932C56.5531 107.932 54.9546 108.371 53.7728 109.25C52.6061 110.129 51.8182 111.167 51.4091 112.364L43.7273 111.273C44.3334 109.152 45.3334 107.379 46.7273 105.955C48.1212 104.515 49.8258 103.439 51.8409 102.727C53.8561 102 56.0834 101.636 58.5228 101.636C60.2046 101.636 61.8788 101.833 63.5455 102.227C65.2121 102.621 66.7349 103.273 68.1137 104.182C69.4924 105.076 70.5985 106.295 71.4318 107.841C72.2803 109.386 72.7046 111.318 72.7046 113.636V137H64.7955V132.205H64.5228C64.0228 133.174 63.3182 134.083 62.4091 134.932C61.5152 135.765 60.3864 136.439 59.0228 136.955C57.6743 137.455 56.0909 137.705 54.2728 137.705ZM56.4091 131.659C58.0606 131.659 59.4924 131.333 60.7046 130.682C61.9167 130.015 62.8485 129.136 63.5 128.045C64.1667 126.955 64.5 125.765 64.5 124.477V120.364C64.2424 120.576 63.8031 120.773 63.1818 120.955C62.5758 121.136 61.894 121.295 61.1364 121.432C60.3788 121.568 59.6288 121.689 58.8864 121.795C58.144 121.902 57.5 121.992 56.9546 122.068C55.7273 122.235 54.6288 122.508 53.6591 122.886C52.6894 123.265 51.9243 123.795 51.3637 124.477C50.8031 125.144 50.5228 126.008 50.5228 127.068C50.5228 128.583 51.0758 129.727 52.1818 130.5C53.2879 131.273 54.697 131.659 56.4091 131.659Z" stroke="white" stroke-width="2" class="svg-elem-11"></path>
<path d="M22.4546 137.682C18.9697 137.682 15.9773 136.917 13.4773 135.386C10.9924 133.856 9.07578 131.742 7.7273 129.045C6.39396 126.333 5.72729 123.212 5.72729 119.682C5.72729 116.136 6.40911 113.008 7.77275 110.295C9.13639 107.568 11.0606 105.447 13.5455 103.932C16.0455 102.402 19 101.636 22.4091 101.636C25.2424 101.636 27.75 102.159 29.9318 103.205C32.1288 104.235 33.8788 105.697 35.1818 107.591C36.4849 109.47 37.2273 111.667 37.4091 114.182H29.5455C29.2273 112.5 28.4697 111.098 27.2728 109.977C26.0909 108.841 24.5076 108.273 22.5228 108.273C20.8409 108.273 19.3637 108.727 18.0909 109.636C16.8182 110.53 15.8258 111.818 15.1137 113.5C14.4167 115.182 14.0682 117.197 14.0682 119.545C14.0682 121.924 14.4167 123.97 15.1137 125.682C15.8106 127.379 16.7879 128.689 18.0455 129.614C19.3182 130.523 20.8106 130.977 22.5228 130.977C23.7349 130.977 24.8182 130.75 25.7728 130.295C26.7424 129.826 27.5531 129.152 28.2046 128.273C28.8561 127.394 29.3031 126.326 29.5455 125.068H37.4091C37.2121 127.538 36.4849 129.727 35.2273 131.636C33.9697 133.53 32.2576 135.015 30.0909 136.091C27.9243 137.152 25.3788 137.682 22.4546 137.682Z" stroke="white" stroke-width="2" class="svg-elem-12"></path>
<path d="M213 1H205V80H213V1Z" fill="white" stroke="white" stroke-width="2" class="svg-elem-13"></path>
<path d="M209.5 0.5H0.5V8.5H209.5V0.5Z" fill="white" stroke="white" stroke-width="2" class="svg-elem-14"></path>
<path d="M8.5 6.5H0.5V85.5H8.5V6.5Z" fill="white" stroke="white" stroke-width="2" class="svg-elem-15"></path>
<path d="M8.5 147.5H0.5V226.5H8.5V147.5Z" fill="white" stroke="white" stroke-width="2" class="svg-elem-16"></path>
<path d="M213 219H4V227H213V219Z" fill="white" stroke="white" stroke-width="2" class="svg-elem-17"></path>
<path d="M213 146H205V225H213V146Z" fill="white" stroke="white" stroke-width="2" class="svg-elem-18"></path>
</g>
<defs>
<clipPath id="clip0_13_2">
<rect width="213" height="227" fill="white" class="svg-elem-19"></rect>
</clipPath>
</defs>
</svg>
