<svg width="57" height="56" viewBox="0 0 57 56" fill="none" xmlns="http://www.w3.org/2000/svg">
<path d="M1.98351 54.5165C0.0308876 52.5639 0.0308877 49.3981 1.98351 47.4455L47.9454 1.48353C49.8981 -0.46909 53.0639 -0.46909 55.0165 1.48353C56.9691 3.43615 56.9691 6.60198 55.0165 8.5546L9.05458 54.5165C7.10195 56.4692 3.93613 56.4692 1.98351 54.5165Z" fill="#66FCF1"/>
<path d="M55.0165 54.5165C53.0639 56.4691 49.8981 56.4691 47.9455 54.5165L1.98352 8.55458C0.0308996 6.60195 0.0308999 3.43613 1.98352 1.48351C3.93614 -0.469112 7.10197 -0.469112 9.05459 1.48351L55.0165 47.4454C56.9692 49.3981 56.9692 52.5639 55.0165 54.5165Z" fill="#66FCF1"/>
</svg>
