<svg
      width="36"
      height="41"
      viewBox="0 0 36 41"
      fill="none"
      xmlns="http://www.w3.org/2000/svg"
    >
      <path
        d="M34.2464 10.6043L18.2897 1.56869L18.1448 1.32265L18 1.40466L17.8552 1.32265L17.7103 1.56869L1.75363 10.6043L1.65542 10.6599H1.5V10.7479L1.31117 10.8548L1.5 11.1756V29.7039L1.31117 30.0246L1.5 30.1316V30.3413H1.87031L17.6039 39.2505L17.6057 39.2536L17.8552 39.6774L18.1064 39.5351L18.1448 39.5568L18.1832 39.4916L18.283 39.4351L34.2464 30.3957L34.3425 30.3413H34.4504V30.2802L34.6888 30.1452L34.4504 29.7401V11.2599L34.6888 10.8548L34.4504 10.7198V10.6599H34.3446L34.2464 10.6043ZM31.6071 12.3465V28.6535L18.1064 36.2983L4.34329 28.5049V12.3746L18 4.64141L31.6071 12.3465Z"
        fill="#66FCF1"
        stroke="#66FCF1"
      />
      <path
        d="M19.9915 22.7417C19.9286 22.7931 19.8106 22.8626 19.6376 22.95C19.4698 23.0374 19.2627 23.1145 19.0163 23.1814C18.7699 23.2482 18.4972 23.2791 18.1984 23.274C17.7422 23.2637 17.3332 23.184 16.9715 23.0348C16.6149 22.8806 16.3108 22.6723 16.0592 22.41C15.8127 22.1478 15.624 21.8469 15.4929 21.5075C15.3618 21.1681 15.2963 20.8056 15.2963 20.4199C15.2963 19.988 15.3618 19.592 15.4929 19.232C15.6292 18.8721 15.8206 18.5609 16.067 18.2987C16.3187 18.0364 16.6176 17.8333 16.9636 17.6893C17.3096 17.5453 17.6924 17.4733 18.1118 17.4733C18.4998 17.4733 18.8433 17.5248 19.1421 17.6276C19.441 17.7304 19.6848 17.841 19.8735 17.9593L19.4253 19.016C19.2942 18.9183 19.1185 18.8181 18.8983 18.7152C18.6833 18.6072 18.4343 18.5532 18.1512 18.5532C17.931 18.5532 17.7186 18.5995 17.5141 18.6921C17.3149 18.7795 17.1366 18.9055 16.9793 19.07C16.8273 19.2346 16.7067 19.4274 16.6176 19.6486C16.5284 19.8645 16.4839 20.1011 16.4839 20.3582C16.4839 20.6308 16.5232 20.8802 16.6018 21.1064C16.6857 21.3327 16.8037 21.5281 16.9557 21.6927C17.1078 21.8521 17.2887 21.9755 17.4984 22.0629C17.7134 22.1503 17.9546 22.194 18.222 22.194C18.5313 22.194 18.7961 22.1452 19.0163 22.0475C19.2365 21.9498 19.4043 21.8469 19.5196 21.7389L19.9915 22.7417Z"
        fill="#66FCF1"
      />
      <path
        fillRule="evenodd"
        clipRule="evenodd"
        d="M20.1426 22.7754L20.0702 22.8346C19.9959 22.8952 19.8673 22.9697 19.6945 23.057C19.5168 23.1496 19.301 23.2295 19.049 23.2978C18.7895 23.3682 18.5049 23.4 18.1962 23.3947L18.1955 23.3947C17.7264 23.3841 17.3019 23.302 16.9238 23.1462L16.9228 23.1458L16.9219 23.1454C16.5512 22.985 16.2333 22.7676 15.9697 22.4929L15.9688 22.492C15.7115 22.2182 15.5145 21.904 15.378 21.5505C15.2413 21.1966 15.1734 20.8195 15.1734 20.4202C15.1734 19.9762 15.2408 19.5663 15.3772 19.1917L15.3777 19.1903C15.5191 18.8168 15.7186 18.4919 15.9766 18.2173L15.9775 18.2163C16.2412 17.9416 16.5542 17.729 16.9156 17.5786C17.2785 17.4276 17.6778 17.3531 18.1118 17.3531C18.5107 17.3531 18.8683 17.4059 19.1828 17.5141C19.4872 17.6189 19.7404 17.7331 19.9397 17.858L20.0266 17.9124L19.4776 19.2067L19.3509 19.1123C19.2289 19.0213 19.0613 18.9251 18.8455 18.8243L18.8439 18.8235L18.8423 18.8227C18.6474 18.7248 18.4182 18.674 18.1512 18.674C17.9491 18.674 17.7543 18.7163 17.5656 18.8018L17.5643 18.8024C17.381 18.8828 17.2162 18.9988 17.0697 19.152C16.9286 19.3049 16.8158 19.4849 16.7318 19.6931L16.7315 19.694C16.6488 19.8942 16.6067 20.1152 16.6067 20.3585C16.6067 20.6191 16.6443 20.8548 16.7177 21.0666C16.7965 21.2787 16.9062 21.4597 17.0461 21.6113C17.1859 21.7577 17.3521 21.8712 17.5459 21.952C17.7438 22.0324 17.9685 22.0738 18.2219 22.0738C18.5185 22.0738 18.7651 22.0269 18.9656 21.9379C19.179 21.8432 19.3332 21.7471 19.4348 21.652L19.5591 21.5356L20.1426 22.7754ZM17.4984 22.0632C17.2887 21.9758 17.1078 21.8523 16.9557 21.6929C16.8037 21.5284 16.6857 21.333 16.6018 21.1067C16.5232 20.8804 16.4838 20.631 16.4838 20.3585C16.4838 20.1013 16.5284 19.8648 16.6175 19.6488C16.7067 19.4277 16.8273 19.2349 16.9793 19.0703C17.1366 18.9057 17.3149 18.7798 17.5141 18.6923C17.7186 18.5998 17.9309 18.5535 18.1512 18.5535C18.4343 18.5535 18.6833 18.6075 18.8983 18.7155C19.0653 18.7935 19.2067 18.87 19.3224 18.945C19.3593 18.9689 19.3936 18.9927 19.4252 19.0163L19.8735 17.9595C19.6848 17.8413 19.441 17.7307 19.1421 17.6279C18.8433 17.525 18.4998 17.4736 18.1118 17.4736C17.6924 17.4736 17.3096 17.5456 16.9636 17.6896C16.6175 17.8336 16.3187 18.0367 16.067 18.2989C15.8206 18.5612 15.6292 18.8723 15.4929 19.2323C15.3618 19.5923 15.2963 19.9882 15.2963 20.4202C15.2963 20.8059 15.3618 21.1684 15.4929 21.5078C15.624 21.8472 15.8127 22.148 16.0591 22.4103C16.3108 22.6725 16.6149 22.8808 16.9715 23.0351C17.3332 23.1842 17.7422 23.2639 18.1983 23.2742C18.4972 23.2793 18.7699 23.2485 19.0163 23.1816C19.2627 23.1148 19.4698 23.0377 19.6376 22.9502C19.8106 22.8628 19.9286 22.7934 19.9915 22.742L19.5196 21.7392C19.4905 21.7665 19.4581 21.7934 19.4223 21.82C19.3163 21.8988 19.1809 21.9747 19.0163 22.0477C18.7961 22.1455 18.5313 22.1943 18.2219 22.1943C17.9545 22.1943 17.7134 22.1506 17.4984 22.0632Z"
        fill="#66FCF1"
      />
    </svg>