<svg width="75" height="60" viewBox="0 0 75 60" fill="none" xmlns="http://www.w3.org/2000/svg">
<path d="M5 50.5H20C22.4853 50.5 24.5 52.5147 24.5 55C24.5 57.4853 22.4853 59.5 20 59.5H5C2.51472 59.5 0.5 57.4853 0.5 55C0.5 52.5147 2.51472 50.5 5 50.5ZM5 25.5H45C47.4853 25.5 49.5 27.5147 49.5 30C49.5 32.4853 47.4853 34.5 45 34.5H5C2.51472 34.5 0.5 32.4853 0.5 30C0.5 27.5147 2.51472 25.5 5 25.5ZM5 0.5H70C72.4853 0.5 74.5 2.51472 74.5 5C74.5 7.48528 72.4853 9.5 70 9.5H5C2.51472 9.5 0.5 7.48528 0.5 5C0.5 2.51472 2.51472 0.5 5 0.5Z" fill="#66FCF1" stroke="#66FCF1"/>
</svg>
